<svg xmlns="http://www.w3.org/2000/svg" viewBox="0 0 448 512">
  <path fill="#339933" d="M224 508c-6.7 0-13.5-1.8-19.4-5.2l-69.8-40.5c-6.5-3.8-10.5-10.8-10.5-18.3V197.2c0-7.5 4-14.5 10.5-18.3l69.8-40.5c11.8-6.8 27-6.8 38.8 0l69.8 40.5c6.5 3.8 10.5 10.8 10.5 18.3v246.8c0 7.5-4 14.5-10.5 18.3l-69.8 40.5c-5.9 3.4-12.7 5.2-19.4 5.2zm-44.9-61.1l44.9 26.1 44.9-26.1V209.1l-44.9-26.1-44.9 26.1v237.8z"/>
  <path fill="#339933" d="M224 0c-6.7 0-13.5 1.8-19.4 5.2l-69.8 40.5c-6.5 3.8-10.5 10.8-10.5 18.3v246.8c0 7.5 4 14.5 10.5 18.3l69.8 40.5c11.8 6.8 27 6.8 38.8 0l69.8-40.5c6.5-3.8 10.5-10.8 10.5-18.3V64c0-7.5-4-14.5-10.5-18.3L243.4 5.2C237.5 1.8 230.7 0 224 0zm44.9 61.1l-44.9-26.1-44.9 26.1v237.8l44.9 26.1 44.9-26.1V61.1z"/>
</svg> 